<svg xmlns="http://www.w3.org/2000/svg" viewBox="0 0 49.01 49.01"><defs><style>.cls-1{fill:#186937;}</style></defs><title>email</title><g id="Layer_2" data-name="Layer 2"><g id="Layer_1-2" data-name="Layer 1"><path class="cls-1" d="M24.51,0A24.51,24.51,0,1,0,49,24.51,24.53,24.53,0,0,0,24.51,0ZM38.69,33.22a1.58,1.58,0,0,1-1.5,1H11.82a1.5,1.5,0,0,1-1.5-1.5V16.32a1.5,1.5,0,0,1,1.5-1.5H37.2c.83,0,1.5.67,1.5,2Z"/><path class="cls-1" d="M24.49,26.66a2.74,2.74,0,0,1-1.24-.42L12.49,18.43V32.12h24V18.43L25.8,26.22A2.17,2.17,0,0,1,24.49,26.66Z"/><polygon class="cls-1" points="35.12 16.89 13.89 16.89 24.49 24.55 35.12 16.89"/></g></g></svg>
