<svg xmlns="http://www.w3.org/2000/svg" viewBox="0 0 49.01 49.01"><defs><style>.cls-1{fill:#186937;}</style></defs><title>insta</title><g id="Layer_2" data-name="Layer 2"><g id="Layer_1-2" data-name="Layer 1"><rect class="cls-1" x="28.94" y="15.63" width="4.91" height="4.78" rx="1.09" ry="1.09"/><ellipse class="cls-1" cx="24.53" cy="24.98" rx="4.85" ry="4.7"/><path class="cls-1" d="M24.51,0A24.51,24.51,0,1,0,49,24.51,24.53,24.53,0,0,0,24.51,0ZM36.59,34a3.11,3.11,0,0,1-3.1,3.1h-18a3.11,3.11,0,0,1-3.1-3.1v-18a3.11,3.11,0,0,1,3.1-3.1h18a3.11,3.11,0,0,1,3.1,3.1Z"/><path class="cls-1" d="M32,25.24a7.52,7.52,0,0,1-15,0,7.1,7.1,0,0,1,.31-2.08H15.11V33.38a1,1,0,0,0,1,1H32.9a1,1,0,0,0,1-1V23.17H31.73A7.05,7.05,0,0,1,32,25.24Z"/></g></g></svg>
