<svg xmlns="http://www.w3.org/2000/svg" viewBox="0 0 49.01 49.01"><defs><style>.cls-1{fill:#186937;}</style></defs><title>linkedin</title><g id="Layer_2" data-name="Layer 2"><g id="Layer_1-2" data-name="Layer 1"><path class="cls-1" d="M24.51,0A24.51,24.51,0,1,0,49,24.51,24.53,24.53,0,0,0,24.51,0ZM18.79,35.72H14.05V20.51h4.73ZM16.42,18.43a2.74,2.74,0,1,1,2.74-2.74A2.74,2.74,0,0,1,16.42,18.43ZM36.5,35.72H31.77V28.33c0-1.77,0-4-2.46-4s-2.84,1.92-2.84,3.9v7.53H21.75V20.51h4.53v2.08h.06a5,5,0,0,1,4.48-2.46c4.79,0,5.67,3.15,5.67,7.25Z"/></g></g></svg>
