<svg xmlns="http://www.w3.org/2000/svg" viewBox="0 0 49.01 49.01"><defs><style>.cls-1{fill:#186937;}</style></defs><title>twitter</title><g id="Layer_2" data-name="Layer 2"><g id="Layer_1-2" data-name="Layer 1"><path class="cls-1" d="M24.51,0A24.51,24.51,0,1,0,49,24.51,24.53,24.53,0,0,0,24.51,0Zm8,20.92c0,.18,0,.36,0,.54a11.78,11.78,0,0,1-18.13,9.92,8.53,8.53,0,0,0,1,.06,8.31,8.31,0,0,0,5.14-1.77,4.15,4.15,0,0,1-3.87-2.88,4.11,4.11,0,0,0,1.87-.07,4.14,4.14,0,0,1-3.32-4.06V22.6a4.12,4.12,0,0,0,1.88.52,4.15,4.15,0,0,1-1.28-5.53,11.75,11.75,0,0,0,8.54,4.33,4.19,4.19,0,0,1-.11-.94,4.14,4.14,0,0,1,7.17-2.83,8.28,8.28,0,0,0,2.63-1,4.15,4.15,0,0,1-1.82,2.29,8.25,8.25,0,0,0,2.38-.65A8.43,8.43,0,0,1,32.53,20.92Z"/></g></g></svg>
